<?xml version="1.0" encoding="utf-8"?>
<!-- Generator: Adobe Illustrator 24.0.1, SVG Export Plug-In . SVG Version: 6.00 Build 0)  -->
<svg version="1.1" id="Layer_1" xmlns="http://www.w3.org/2000/svg" xmlns:xlink="http://www.w3.org/1999/xlink" x="0px" y="0px"
	 viewBox="0 0 787 768" style="enable-background:new 0 0 787 768;" xml:space="preserve">
<style type="text/css">
	.st0{fill:#733BAD;}
	.st1{fill:url(#SVGID_1_);}
	.st2{fill:url(#SVGID_2_);}
	.st3{fill:url(#SVGID_3_);}
	.st4{fill:url(#SVGID_4_);}
	.st5{opacity:0.38;}
	.st6{fill:url(#SVGID_5_);}
	.st7{opacity:0.3;fill:url(#SVGID_6_);}
	.st8{opacity:0.42;fill:url(#SVGID_7_);}
	.st9{opacity:0.64;fill:url(#SVGID_8_);}
	.st10{fill:url(#SVGID_9_);}
	.st11{fill:url(#SVGID_10_);}
	.st12{fill:url(#SVGID_11_);}
	.st13{fill:url(#SVGID_12_);}
</style>
<g>
	<g>
		<path class="st0" d="M632.83,260.15c-13.23-33.68-31.73-62.73-55.61-87.16c-11.84-12.21-24.98-23.13-39.23-32.75
			c-0.09,0-0.09,0-0.09,0c-10.73-7.22-22.11-13.69-34.23-19.43c-4.07-1.85-8.23-3.7-12.4-5.46c-33.58-13.79-70.69-20.82-111.4-20.82
			c-35.53,0-68.47,5.27-98.63,15.91c-4.35,1.48-8.6,3.05-12.77,4.81c-21.1,8.61-40.16,19.34-57.46,32.11c-0.09,0-0.09,0-0.09,0
			c-10.27,7.77-19.89,16.19-28.87,25.35c-23.96,24.61-42.56,53.76-55.7,87.43c-13.14,33.59-19.8,70.13-19.8,109.64
			c0,19.52,1.57,38.3,4.9,56.25c3.24,18.6,8.23,36.36,14.9,53.48c13.14,33.59,31.73,62.73,55.7,87.34
			c8.97,9.16,18.69,17.67,28.96,25.35c6.85,5.09,13.97,9.81,21.37,14.25c0.74,0.46,1.48,0.93,2.22,1.3
			c2.68,1.57,5.46,3.15,8.24,4.53c1.57,0.92,3.24,1.76,4.81,2.5c2.31,1.29,4.63,2.41,6.94,3.42c1.66,0.83,3.33,1.67,5.09,2.31
			c1.57,0.83,3.15,1.48,4.72,2.13c77.35-44.41,150.63-55.98,214.38-51.54c28.03,1.94,54.22,6.85,77.9,13.51
			c0.28,0.09,0.65,0.18,0.93,0.28c6.94-5.64,13.42-11.66,19.61-18.04c23.87-24.61,42.38-53.76,55.61-87.34
			c10.73-27.85,17.21-57.64,19.06-89.47c0-1.57,0.19-3.33,0.28-4.9c0.19-5.09,0.28-10.18,0.28-15.36
			C652.45,330.29,645.88,293.74,632.83,260.15z M542.53,434.19c-1.29,5.18-2.78,10.27-4.44,15.17c0,0.09,0,0.09,0,0.18
			c-7.86,23.41-19.15,43.21-33.68,59.4c-0.19,0.28-0.56,0.56-0.74,0.83c-5.46,6.01-11.29,11.38-17.67,16.28h-0.09
			c-6.2,5-12.95,9.34-20.08,13.23c-4.81,2.59-9.81,5-14.99,7.12c-21,8.6-44.69,12.95-70.97,12.95c-23.04,0-43.95-3.33-62.92-9.9
			c-2.78-0.93-5.46-1.94-8.05-3.05c-7.96-3.33-15.45-7.12-22.48-11.38h-0.09c-11.66-7.31-22.02-15.91-31.27-26.09
			c-14.8-16.28-26.18-36.18-34.14-59.58c-7.96-23.5-11.84-49.96-11.84-79.57c0-3.98,0.09-7.86,0.28-11.66
			c0.83-24.89,4.72-47.46,11.57-67.82c7.96-23.5,19.34-43.39,34.14-59.77c9.25-10.27,19.61-18.97,31.27-26.28h0.09
			c7.03-4.35,14.53-8.14,22.48-11.38c2.59-1.11,5.27-2.13,8.05-3.05c18.97-6.66,39.88-9.99,62.92-9.99
			c26.28,0,49.96,4.35,70.97,13.05h0.09c21,8.7,38.86,21.19,53.48,37.66c14.62,16.38,25.91,36.27,33.68,59.77
			c4.53,13.69,7.77,28.31,9.62,43.95c1.48,11.38,2.13,23.13,2.13,35.53C549.84,393.2,547.43,414.67,542.53,434.19z"/>
	</g>
</g>
<g>
	<g>
		<linearGradient id="SVGID_1_" gradientUnits="userSpaceOnUse" x1="379.457" y1="190.8636" x2="379.457" y2="337.7351">
			<stop  offset="0.2451" style="stop-color:#000000;stop-opacity:0"/>
			<stop  offset="1" style="stop-color:#000000;stop-opacity:0.5"/>
		</linearGradient>
		<path class="st1" d="M632.83,260.15c-13.23-33.68-31.73-62.73-55.61-87.16c-11.84-12.21-24.98-23.13-39.23-32.75
			c-0.09,0-0.09,0-0.09,0c-10.73-7.22-22.2-13.6-34.23-19.43c-4.07-1.85-8.23-3.7-12.4-5.46c-33.58-13.79-70.69-20.82-111.4-20.82
			c-35.53,0-68.47,5.27-98.63,15.91c-4.35,1.39-8.7,3.05-12.95,4.81c-20.91,8.61-40.06,19.34-57.27,32.11c-0.09,0-0.09,0-0.09,0
			c-10.36,7.68-20.08,16.19-29.05,25.35c-23.96,24.61-42.47,53.76-55.7,87.43c-13.14,33.59-19.71,70.13-19.71,109.64
			c0,19.52,1.48,38.3,4.81,56.25c3.33,18.6,8.23,36.36,14.9,53.48c13.23,33.59,31.74,62.73,55.7,87.34c3.05,3.15,6.2,6.2,9.44,8.98
			c3.15,2.87,6.29,5.74,9.62,8.42c3.33,2.78,6.66,5.46,10.08,7.96c7.49,5.64,15.36,10.83,23.59,15.54c2.41,1.48,4.9,2.78,7.4,4.07
			c1.85,1.11,3.7,2.13,5.64,2.96c2.22,1.2,4.53,2.41,6.85,3.33c1.85,1.02,3.7,1.85,5.55,2.59c1.48,0.74,2.78,1.39,4.26,1.94h0.09
			c77.35-44.41,150.63-55.98,214.38-51.54c28.03,1.94,54.22,6.85,77.9,13.51c0.28,0.09,0.65,0.18,0.93,0.28
			c6.94-5.64,13.42-11.66,19.61-18.04c23.87-24.61,42.38-53.76,55.61-87.34c10.73-27.85,17.21-57.64,19.06-89.47
			c0-1.48,0.19-3.15,0.28-4.63v-0.28c0.19-5.09,0.28-10.18,0.28-15.36C652.45,330.29,645.88,293.74,632.83,260.15z M504.22,508.95
			c-0.19,0.28-0.46,0.56-0.74,0.83c-5.37,5.92-11.19,11.38-17.49,16.28h-0.09c-6.29,4.9-12.95,9.34-20.08,13.23
			c-4.81,2.59-9.81,5-14.99,7.12c-21,8.6-44.69,12.95-70.97,12.95c-23.04,0-43.95-3.33-62.92-9.9c-2.78-0.93-5.55-1.94-8.24-3.05
			c-7.86-3.24-15.36-7.03-22.3-11.38h-0.09c-11.75-7.22-22.21-15.91-31.46-26.09c-14.8-16.28-26.09-36.18-34.05-59.58
			c-7.96-23.5-11.93-49.96-11.93-79.57c0-3.98,0.09-7.86,0.28-11.66c0.93-24.89,4.72-47.46,11.66-67.82
			c7.96-23.5,19.25-43.39,34.05-59.77c9.25-10.27,19.71-19.06,31.46-26.28h0.09c6.94-4.35,14.43-8.14,22.3-11.38
			c2.68-1.11,5.46-2.13,8.24-3.05c18.97-6.66,39.88-9.99,62.92-9.99c26.28,0,49.96,4.35,70.97,13.05h0.09
			c20.91,8.7,38.67,21.19,53.29,37.66c14.71,16.38,25.91,36.27,33.77,59.77c4.53,13.69,7.68,28.31,9.53,43.95
			c1.48,11.38,2.13,23.13,2.13,35.53c0,23.41-2.41,44.87-7.31,64.4c-0.55,2.22-1.11,4.44-1.76,6.57c-0.28,1.02-0.56,2.04-0.83,2.96
			c-0.55,1.94-1.2,3.79-1.76,5.64c0,0.09-0.09,0.09-0.09,0.18C530.04,472.96,518.84,492.76,504.22,508.95z"/>
	</g>
</g>
<g>
	
		<linearGradient id="SVGID_2_" gradientUnits="userSpaceOnUse" x1="1896.0961" y1="1793.8701" x2="2148.4436" y2="1680.4639" gradientTransform="matrix(-0.8379 0.5459 -0.5459 -0.8379 3266.1575 697.0432)">
		<stop  offset="0" style="stop-color:#2700D4"/>
		<stop  offset="0.4543" style="stop-color:#FF00E7"/>
		<stop  offset="1" style="stop-color:#F1FF6A"/>
	</linearGradient>
	<path class="st2" d="M548.07,430.23c0.23-0.04,0.45-0.08,0.67-0.13c6.46-1.4,27.01-10.29,38.2-66.28l0.01,0
		c1.14-6.86,5.47-13.09,12.21-16.34c11.01-5.33,24.24-0.71,29.57,10.3c0.46,0.96,0.84,1.93,1.15,2.92c0.2,0.58,0.36,1.17,0.49,1.76
		c0.37,1.59,0.55,3.18,0.56,4.77c0,0.01,0,0.02,0,0.02c0.02,3.19-0.65,6.33-1.94,9.21C620.87,399.02,588.34,426.08,548.07,430.23z"
		/>
</g>
<linearGradient id="SVGID_3_" gradientUnits="userSpaceOnUse" x1="2028.0446" y1="1739.4816" x2="2125.9646" y2="1695.4757" gradientTransform="matrix(-0.8379 0.5459 -0.5459 -0.8379 3266.1575 697.0432)">
	<stop  offset="0" style="stop-color:#2700D4"/>
	<stop  offset="0.4543" style="stop-color:#FF00E7"/>
	<stop  offset="1" style="stop-color:#F1FF6A"/>
</linearGradient>
<path class="st3" d="M548.74,430.1c6.46-1.4,27.01-10.29,38.2-66.28l0.01,0c1.14-6.86,5.47-13.09,12.21-16.34
	c11.01-5.33,24.24-0.71,29.57,10.3c0.46,0.96,0.84,1.93,1.15,2.92c-5.05-14.24-28.72,1.83-36.61,28.13
	C586.59,411.11,573.75,425.46,548.74,430.1z"/>
<linearGradient id="SVGID_4_" gradientUnits="userSpaceOnUse" x1="293.1594" y1="639.9605" x2="676.2708" y2="639.9605">
	<stop  offset="0.018" style="stop-color:#2700D4"/>
	<stop  offset="0.1404" style="stop-color:#7300DB"/>
	<stop  offset="0.2491" style="stop-color:#AF00E0"/>
	<stop  offset="0.3409" style="stop-color:#DA00E4"/>
	<stop  offset="0.4122" style="stop-color:#F500E6"/>
	<stop  offset="0.4543" style="stop-color:#FF00E7"/>
	<stop  offset="0.9208" style="stop-color:#F1FF6A"/>
</linearGradient>
<path class="st4" d="M604.87,634.57c0,0.09-0.09,0.09-0.09,0.19c-15.27,22.48-37.01,40.62-62.45,50.15
	c-19.06,7.12-39.23,9.71-59.58,8.98c-21.28-0.56-42.75-4.72-63.19-10.83c-12.12-3.61-24.05-7.86-35.9-12.58
	c-27.02-10.36-53.39-22.48-80.77-32.29c-3.15-1.3-6.48-2.31-9.72-3.42c61.99-41.17,121.21-51.72,171.72-48.2
	c20.08,1.39,38.77,4.9,55.7,9.72C560.18,607.28,590.07,624.67,604.87,634.57z"/>
<path class="st5" d="M604.87,634.76c-15.27,22.48-37.01,40.62-62.45,50.15c-19.06,7.12-39.23,9.71-59.58,8.98
	c-21.28-0.56-42.75-4.72-63.19-10.83c-12.12-3.61-24.05-7.86-35.9-12.58c32.85-22.02,66.15-34.05,97.43-39.97
	c19.8-3.7,38.77-4.9,56.35-4.63C563.98,626.34,587.2,630.41,604.87,634.76z"/>
<linearGradient id="SVGID_5_" gradientUnits="userSpaceOnUse" x1="127.6466" y1="530.8559" x2="677.0502" y2="321.3611">
	<stop  offset="0" style="stop-color:#2700D4"/>
	<stop  offset="0.4543" style="stop-color:#FF00E7"/>
	<stop  offset="1" style="stop-color:#F1FF6A"/>
</linearGradient>
<path class="st6" d="M652.17,385.43c-0.09,1.48-0.28,3.15-0.28,4.63c-1.85,31.83-8.33,61.62-19.06,89.47
	c-13.23,33.59-31.73,62.73-55.61,87.34c-6.2,6.38-12.67,12.4-19.61,18.04c-0.28-0.09-0.65-0.18-0.93-0.28
	c-23.69-6.66-49.87-11.57-77.9-13.51c-63.75-4.44-137.03,7.12-214.38,51.54c-1.48-0.56-2.87-1.2-4.35-1.94
	c-1.85-0.74-3.7-1.57-5.55-2.59c-2.31-0.93-4.63-2.13-6.85-3.33c-1.94-0.83-3.79-1.85-5.64-2.96c-2.5-1.3-5-2.59-7.4-4.07
	c-8.23-4.72-16.1-9.9-23.59-15.54c-3.42-2.5-6.75-5.18-10.08-7.96c-3.33-2.68-6.48-5.55-9.62-8.42c-3.15-2.87-6.29-5.92-9.25-8.98
	c-23.96-24.61-42.47-53.66-55.7-87.34c-6.66-17.02-11.66-34.88-14.9-53.48c0-0.09,0.09-0.09,0.09-0.19
	c-1.3-7.22-2.13-14.62-2.13-22.3c0-16.56,3.33-32.38,9.34-46.72c1.3-3.15,2.78-6.2,4.35-9.25c8.97-17.21,21.93-32.11,37.75-43.3
	c15.82-11.2,34.33-18.69,54.5-21.28c5.27-0.56,10.08-0.92,14.43-1.02h3.79c9.81,0.19,18.78,1.48,26.46,3.52
	c7.77,2.04,14.62,5.37,20.17,9.44c0.09,0.09,0.19,0.18,0.28,0.28c0.09,0,0.09,0,0.09,0.09c0.83,0.56,1.57,1.2,2.4,1.85
	c12.86,11.2,16.28,26.28,2.68,35.34c-0.09,0.09-0.28,0.18-0.46,0.28c-3.05,1.94-6.2,2.68-9.53,2.68c-14.8,0-32.85-16.47-57.73-22.76
	c-9.81-2.5-20.63-3.42-32.75-1.11c-12.12,2.31-22.3,6.29-30.63,11.29c-0.19,0.09-0.28,0.09-0.37,0.19
	c-0.37,0.19-0.65,0.46-1.02,0.65c-33.86,21.28-37.84,60.79-24.8,79.2c0.19,0.28,0.56,0.56,0.83,0.74c3.24-3.33,6.66-6.57,10.18-9.71
	c2.22-1.85,10.83-9.07,15.73-12.4c16.38-11.2,34.7-19.43,54.03-23.41c0.09,0,0.09,0,0.19,0c3.89-0.83,7.77-1.48,11.66-1.94
	c37.38-4.26,75.04,5.55,109.92,19.89c3.79,1.39,7.49,3.05,11.1,4.63c38.21,16.84,74.3,38.21,113.43,52.83
	c19.98,7.4,40.99,13.05,62.27,15.17c6.66,0.65,13.42,0.92,20.17,0.83c0.09,0,0.09,0,0.19,0c13.42-0.18,26.74-1.94,39.69-5.83
	C608.78,434.38,635.14,412.82,652.17,385.43z"/>
<linearGradient id="SVGID_6_" gradientUnits="userSpaceOnUse" x1="127.6466" y1="530.8559" x2="677.0502" y2="321.3611">
	<stop  offset="0" style="stop-color:#2700D4"/>
	<stop  offset="0.4543" style="stop-color:#FF00E7"/>
	<stop  offset="1" style="stop-color:#F1FF6A"/>
</linearGradient>
<path class="st7" d="M652.17,385.43c-0.09,1.48-0.28,3.15-0.28,4.63c-1.85,31.83-8.33,61.62-19.06,89.47
	c-13.23,33.59-31.73,62.73-55.61,87.34c-6.2,6.38-12.67,12.4-19.61,18.04c-0.28-0.09-0.65-0.18-0.93-0.28
	c-23.69-6.66-49.87-11.57-77.9-13.51c-63.75-4.44-137.03,7.12-214.38,51.54c-1.48-0.56-2.87-1.2-4.35-1.94
	c-1.85-0.74-3.7-1.57-5.55-2.59c-2.31-0.93-4.63-2.13-6.85-3.33c-1.94-0.83-3.79-1.85-5.64-2.96c-2.5-1.3-5-2.59-7.4-4.07
	c-8.23-4.72-16.1-9.9-23.59-15.54c-3.42-2.5-6.75-5.18-10.08-7.96c-3.33-2.68-6.48-5.55-9.62-8.42c-3.15-2.87-6.29-5.92-9.25-8.98
	c-23.96-24.61-42.47-53.66-55.7-87.34c-6.66-17.02-11.66-34.88-14.9-53.48c0-0.09,0.09-0.09,0.09-0.19
	c-1.3-7.22-2.13-14.62-2.13-22.3c0-16.56,3.33-32.38,9.34-46.72c1.3-3.15,2.78-6.2,4.35-9.25c8.97-17.21,21.93-32.11,37.75-43.3
	c15.82-11.2,34.33-18.69,54.5-21.28c5.27-0.56,10.08-0.92,14.43-1.02h3.79c9.81,0.19,18.78,1.48,26.46,3.52
	c7.77,2.04,14.62,5.37,20.17,9.44c0.09,0.09,0.19,0.18,0.28,0.28c0.09,0,0.09,0,0.09,0.09c0.83,0.56,1.57,1.2,2.4,1.85
	c12.86,11.2,16.28,26.28,2.68,35.34c-0.09,0.09-0.28,0.18-0.46,0.28c-3.05,1.94-6.2,2.68-9.53,2.68c-14.8,0-32.85-16.47-57.73-22.76
	c-9.81-2.5-20.63-3.42-32.75-1.11c-12.12,2.31-22.3,6.29-30.63,11.29c-0.19,0.09-0.28,0.09-0.37,0.19
	c-0.37,0.19-0.65,0.46-1.02,0.65c-33.86,21.28-37.84,60.79-24.8,79.2c0.19,0.28,0.56,0.56,0.83,0.74c3.24-3.33,6.66-6.57,10.18-9.71
	c2.22-1.85,10.83-9.07,15.73-12.4c16.38-11.2,34.7-19.43,54.03-23.41c0.09,0,0.09,0,0.19,0c3.89-0.83,7.77-1.48,11.66-1.94
	c37.38-4.26,75.04,5.55,109.92,19.89c3.79,1.39,7.49,3.05,11.1,4.63c38.21,16.84,74.3,38.21,113.43,52.83
	c19.98,7.4,40.99,13.05,62.27,15.17c6.66,0.65,13.42,0.92,20.17,0.83c0.09,0,0.09,0,0.19,0c13.42-0.18,26.74-1.94,39.69-5.83
	C608.78,434.38,635.14,412.82,652.17,385.43z"/>
<linearGradient id="SVGID_7_" gradientUnits="userSpaceOnUse" x1="158.3052" y1="597.9819" x2="705.1964" y2="389.4451">
	<stop  offset="0" style="stop-color:#2700D4"/>
	<stop  offset="0.4543" style="stop-color:#FF00E7"/>
	<stop  offset="1" style="stop-color:#F1FF6A"/>
</linearGradient>
<path class="st8" d="M651.8,391.17c-1.94,31.46-8.33,60.88-18.97,88.36c-13.23,33.59-31.73,62.73-55.61,87.34
	c-6.2,6.38-12.67,12.4-19.61,18.04c-0.28-0.09-0.65-0.18-0.93-0.28c-23.69-6.66-49.87-11.57-77.9-13.51
	c-63.75-4.44-137.03,7.12-214.38,51.54c-1.48-0.56-2.87-1.2-4.35-1.94c-1.85-0.74-3.7-1.57-5.55-2.59
	c-2.31-0.93-4.63-2.13-6.85-3.33c-1.94-0.83-3.79-1.85-5.64-2.96c-2.5-1.3-5-2.59-7.4-4.07c-8.23-4.72-16.1-9.9-23.59-15.54
	c-3.42-2.5-6.75-5.18-10.08-7.96c-3.33-2.68-6.48-5.55-9.62-8.42c-3.15-2.87-6.29-5.92-9.25-8.98
	c-23.96-24.61-42.47-53.66-55.7-87.34c-0.93-2.5-1.94-5-2.78-7.49c31.55,32.66,67.8,15.12,147.47-34.56
	c60.33-37.56,130.72-12.64,223.37,14.86C591.73,481.22,650.23,403.47,651.8,391.17z"/>
<linearGradient id="SVGID_8_" gradientUnits="userSpaceOnUse" x1="124.2217" y1="610.9784" x2="671.1129" y2="402.4416">
	<stop  offset="0" style="stop-color:#2700D4"/>
	<stop  offset="0.4543" style="stop-color:#FF00E7"/>
	<stop  offset="1" style="stop-color:#F1FF6A"/>
</linearGradient>
<path class="st9" d="M651.8,391.17c-1.94,31.46-8.33,60.88-18.97,88.36c-13.23,33.59-31.73,62.73-55.61,87.34
	c-6.2,6.38-12.67,12.4-19.61,18.04c-0.28-0.09-0.65-0.18-0.93-0.28c-23.69-6.66-49.87-11.57-77.9-13.51
	c-63.75-4.44-137.03,7.12-214.38,51.54c-1.48-0.56-2.87-1.2-4.35-1.94c-1.85-0.74-3.7-1.57-5.55-2.59
	c-2.31-0.93-4.63-2.13-6.85-3.33c-1.94-0.83-3.79-1.85-5.64-2.96c-2.5-1.3-5-2.59-7.4-4.07c-8.23-4.72-16.1-9.9-23.59-15.54
	c-3.42-2.5-6.75-5.18-10.08-7.96c-3.33-2.68-6.48-5.55-9.62-8.42c-3.15-2.87-6.29-5.92-9.25-8.98
	c-23.96-24.61-42.47-53.66-55.7-87.34c-0.93-2.5-1.94-5-2.78-7.49c31.55,32.66,103.16,89.84,182.83,40.16
	c60.33-37.56,81.84-69.97,182.32-28.89C582.74,521.6,650.23,403.47,651.8,391.17z"/>
<linearGradient id="SVGID_9_" gradientUnits="userSpaceOnUse" x1="650.9722" y1="388.1474" x2="652.9693" y2="387.3859">
	<stop  offset="0" style="stop-color:#2700D4"/>
	<stop  offset="0.4543" style="stop-color:#FF00E7"/>
	<stop  offset="1" style="stop-color:#F1FF6A"/>
</linearGradient>
<path class="st10" d="M652.17,385.43c-0.09,1.48-0.28,3.15-0.28,4.63l-0.74-3.05C651.52,386.45,651.8,385.99,652.17,385.43z"/>
<linearGradient id="SVGID_10_" gradientUnits="userSpaceOnUse" x1="195.6536" y1="302.5436" x2="326.2972" y2="316.0358">
	<stop  offset="0" style="stop-color:#2700D4"/>
	<stop  offset="0.4543" style="stop-color:#FF00E7"/>
	<stop  offset="1" style="stop-color:#F1FF6A"/>
</linearGradient>
<path class="st11" d="M285.36,332.84c-9.22,5.83-19.46,1.45-31.9-4.95c12.31,6.31,33.39,0.68,24.37-19.41
	c-15.8-35.21-80.19-21.72-105.9-11c13.2-7.39,27.91-12.39,43.57-14.4c0.02-0.01,0.04-0.01,0.06-0.01
	c5.24-0.59,10.09-0.94,14.42-0.99c0.41-0.01,0.82-0.01,1.23-0.01c0.45,0,0.9,0,1.34,0.01c0.39,0,0.78,0.01,1.18,0.01
	c9.87,0.19,18.78,1.44,26.47,3.46c7.79,2.04,14.65,5.4,20.14,9.47c0,0,0.01,0,0.01,0.01c0.12,0.08,0.23,0.17,0.34,0.26
	c0.03,0.01,0.05,0.04,0.08,0.05c0.81,0.61,1.59,1.24,2.34,1.89C296.2,308.48,299.48,323.9,285.36,332.84z"/>
<g>
	<linearGradient id="SVGID_11_" gradientUnits="userSpaceOnUse" x1="290.4119" y1="335.5679" x2="340.8986" y2="335.5679">
		<stop  offset="0" style="stop-color:#2700D4"/>
		<stop  offset="0.4543" style="stop-color:#FF00E7"/>
		<stop  offset="1" style="stop-color:#F1FF6A"/>
	</linearGradient>
	<circle class="st12" cx="312.73" cy="335.57" r="12.73"/>
	<linearGradient id="SVGID_12_" gradientUnits="userSpaceOnUse" x1="290.4213" y1="335.3399" x2="340.881" y2="335.3399">
		<stop  offset="0" style="stop-color:#2700D4"/>
		<stop  offset="0.4543" style="stop-color:#FF00E7"/>
		<stop  offset="1" style="stop-color:#F1FF6A"/>
	</linearGradient>
	<path class="st13" d="M325.46,335.16c-1.49-4.05-5.44-6.93-10.01-6.93c-5.95,0-10.78,4.77-10.78,10.73c0,3.64,1.85,6.88,4.62,8.88
		c-5.39-1.54-9.29-6.42-9.29-12.27c0-7.03,5.7-12.73,12.73-12.73C319.61,322.84,325.25,328.33,325.46,335.16z"/>
</g>
</svg>
