<?xml version="1.0" encoding="utf-8"?>
<!-- Generator: Adobe Illustrator 24.0.1, SVG Export Plug-In . SVG Version: 6.00 Build 0)  -->
<svg version="1.1" id="Layer_1" xmlns="http://www.w3.org/2000/svg" xmlns:xlink="http://www.w3.org/1999/xlink" x="0px" y="0px"
	 viewBox="0 0 1366 768" style="enable-background:new 0 0 1366 768;" xml:space="preserve">
<style type="text/css">
	.st0{fill:#50416D;}
	.st1{fill:#733BAD;}
	.st2{fill:url(#SVGID_1_);}
	.st3{fill:url(#SVGID_2_);}
	.st4{fill:url(#SVGID_3_);}
	.st5{fill:url(#SVGID_4_);}
	.st6{opacity:0.38;}
	.st7{fill:#695784;}
	.st8{fill:url(#SVGID_5_);}
	.st9{opacity:0.3;fill:url(#SVGID_6_);}
	.st10{opacity:0.42;fill:url(#SVGID_7_);}
	.st11{opacity:0.64;fill:url(#SVGID_8_);}
	.st12{fill:url(#SVGID_9_);}
	.st13{fill:url(#SVGID_10_);}
	.st14{fill:url(#SVGID_11_);}
	.st15{fill:url(#SVGID_12_);}
</style>
<g>
	<path class="st0" d="M198.93,430.01h98.17v37.64H153.32V222.48h45.61V430.01z"/>
	<path class="st0" d="M373.9,467.65h-45.78V222.48h45.78V467.65z"/>
	<path class="st0" d="M758.93,430.85c8.82,0,16.7-1.47,23.65-4.41c6.95-2.94,12.83-7.06,17.63-12.38
		c4.8-5.31,8.48-11.75,11.02-19.33c2.54-7.57,3.82-16.05,3.82-25.43V222.48h45.61v146.83c0,14.58-2.35,28.06-7.04,40.44
		c-4.69,12.38-11.45,23.06-20.26,32.04c-8.82,8.99-19.5,16-32.04,21.02c-12.55,5.03-26.68,7.54-42.39,7.54
		c-15.71,0-29.84-2.52-42.39-7.54s-23.2-12.04-31.96-21.02c-8.76-8.99-15.49-19.67-20.18-32.04c-4.69-12.38-7.04-25.86-7.04-40.44
		V222.48h45.61v146.66c0,9.38,1.27,17.86,3.81,25.43c2.54,7.57,6.19,14.04,10.94,19.41c4.75,5.37,10.6,9.52,17.55,12.46
		C742.23,429.39,750.12,430.85,758.93,430.85z"/>
	<path class="st0" d="M952.39,467.65h-45.78V222.48h45.78V467.65z"/>
	<path class="st0" d="M1219.08,345.06c0,17.97-3,34.48-8.99,49.51c-5.99,15.03-14.41,27.97-25.26,38.83
		c-10.85,10.85-23.91,19.27-39.17,25.26c-15.26,5.99-32.16,8.99-50.7,8.99h-93.59V222.48h93.59c18.54,0,35.44,3.03,50.7,9.07
		c15.26,6.05,28.31,14.47,39.17,25.26c10.85,10.8,19.27,23.71,25.26,38.74C1216.09,310.59,1219.08,327.09,1219.08,345.06z
		 M1172.46,345.06c0-13.45-1.81-25.52-5.43-36.2c-3.62-10.68-8.76-19.72-15.43-27.13c-6.67-7.4-14.78-13.08-24.33-17.04
		c-9.55-3.96-20.32-5.93-32.3-5.93h-47.64v172.6h47.64c11.98,0,22.75-1.98,32.3-5.93c9.55-3.96,17.66-9.64,24.33-17.04
		c6.67-7.4,11.81-16.45,15.43-27.13C1170.65,370.58,1172.46,358.52,1172.46,345.06z"/>
</g>
<g>
	<g>
		<path class="st1" d="M629.61,293.41c-6.06-15.43-14.54-28.74-25.47-39.93c-5.43-5.6-11.44-10.6-17.97-15.01c-0.04,0-0.04,0-0.04,0
			c-4.92-3.31-10.13-6.27-15.68-8.9c-1.86-0.85-3.77-1.7-5.68-2.5c-15.39-6.32-32.38-9.54-51.03-9.54
			c-16.28,0-31.37,2.42-45.18,7.29c-1.99,0.68-3.94,1.4-5.85,2.2c-9.66,3.94-18.4,8.86-26.32,14.71c-0.04,0-0.04,0-0.04,0
			c-4.7,3.56-9.11,7.42-13.22,11.61c-10.98,11.28-19.5,24.63-25.52,40.06c-6.02,15.39-9.07,32.13-9.07,50.23
			c0,8.94,0.72,17.55,2.25,25.77c1.48,8.52,3.77,16.66,6.82,24.5c6.02,15.39,14.54,28.74,25.52,40.01c4.11,4.2,8.56,8.1,13.27,11.61
			c3.14,2.33,6.4,4.49,9.79,6.53c0.34,0.21,0.68,0.42,1.02,0.59c1.23,0.72,2.5,1.44,3.77,2.08c0.72,0.42,1.48,0.81,2.2,1.14
			c1.06,0.59,2.12,1.1,3.18,1.57c0.76,0.38,1.53,0.76,2.33,1.06c0.72,0.38,1.44,0.68,2.16,0.97c35.44-20.35,69.01-25.64,98.21-23.61
			c12.84,0.89,24.84,3.14,35.69,6.19c0.13,0.04,0.3,0.08,0.42,0.13c3.18-2.59,6.15-5.34,8.99-8.27
			c10.94-11.27,19.41-24.63,25.47-40.01c4.92-12.76,7.88-26.41,8.73-40.99c0-0.72,0.08-1.53,0.13-2.25
			c0.08-2.33,0.13-4.66,0.13-7.04C638.59,325.54,635.58,308.8,629.61,293.41z M588.24,373.14c-0.59,2.37-1.27,4.7-2.03,6.95
			c0,0.04,0,0.04,0,0.08c-3.6,10.72-8.77,19.79-15.43,27.21c-0.08,0.13-0.25,0.25-0.34,0.38c-2.5,2.76-5.17,5.21-8.1,7.46h-0.04
			c-2.84,2.29-5.93,4.28-9.2,6.06c-2.2,1.19-4.49,2.29-6.87,3.26c-9.62,3.94-20.47,5.93-32.51,5.93c-10.55,0-20.13-1.53-28.82-4.54
			c-1.27-0.42-2.5-0.89-3.69-1.4c-3.65-1.53-7.08-3.26-10.3-5.21h-0.04c-5.34-3.35-10.09-7.29-14.33-11.95
			c-6.78-7.46-12-16.57-15.64-27.3c-3.64-10.77-5.43-22.89-5.43-36.45c0-1.82,0.04-3.6,0.13-5.34c0.38-11.4,2.16-21.74,5.3-31.07
			c3.65-10.77,8.86-19.88,15.64-27.38c4.24-4.7,8.99-8.69,14.33-12.04h0.04c3.22-1.99,6.65-3.73,10.3-5.21
			c1.19-0.51,2.42-0.97,3.69-1.4c8.69-3.05,18.27-4.58,28.82-4.58c12.04,0,22.89,1.99,32.51,5.98h0.04
			c9.62,3.98,17.8,9.71,24.5,17.25c6.7,7.5,11.87,16.62,15.43,27.38c2.08,6.27,3.56,12.97,4.41,20.13
			c0.68,5.21,0.97,10.6,0.97,16.28C591.58,354.36,590.48,364.2,588.24,373.14z"/>
	</g>
</g>
<g>
	<g>
		<linearGradient id="SVGID_1_" gradientUnits="userSpaceOnUse" x1="513.5294" y1="261.6666" x2="513.5294" y2="328.9516">
			<stop  offset="0.2451" style="stop-color:#000000;stop-opacity:0"/>
			<stop  offset="1" style="stop-color:#000000;stop-opacity:0.5"/>
		</linearGradient>
		<path class="st2" d="M629.61,293.41c-6.06-15.43-14.54-28.74-25.47-39.93c-5.43-5.6-11.44-10.6-17.97-15.01c-0.04,0-0.04,0-0.04,0
			c-4.92-3.31-10.17-6.23-15.68-8.9c-1.86-0.85-3.77-1.7-5.68-2.5c-15.39-6.32-32.38-9.54-51.03-9.54
			c-16.28,0-31.37,2.42-45.18,7.29c-1.99,0.64-3.98,1.4-5.93,2.2c-9.58,3.94-18.35,8.86-26.24,14.71c-0.04,0-0.04,0-0.04,0
			c-4.75,3.52-9.2,7.42-13.31,11.61c-10.98,11.28-19.46,24.63-25.52,40.06c-6.02,15.39-9.03,32.13-9.03,50.23
			c0,8.94,0.68,17.55,2.2,25.77c1.53,8.52,3.77,16.66,6.82,24.5c6.06,15.39,14.54,28.74,25.52,40.01c1.4,1.44,2.84,2.84,4.32,4.11
			c1.44,1.31,2.88,2.63,4.41,3.86c1.53,1.27,3.05,2.5,4.62,3.65c3.43,2.59,7.04,4.96,10.81,7.12c1.1,0.68,2.25,1.27,3.39,1.87
			c0.85,0.51,1.7,0.97,2.59,1.36c1.02,0.55,2.08,1.1,3.14,1.53c0.85,0.47,1.7,0.85,2.54,1.19c0.68,0.34,1.27,0.64,1.95,0.89h0.04
			c35.44-20.35,69.01-25.64,98.21-23.61c12.84,0.89,24.84,3.14,35.69,6.19c0.13,0.04,0.3,0.08,0.42,0.13
			c3.18-2.59,6.15-5.34,8.99-8.27c10.94-11.27,19.41-24.63,25.47-40.01c4.92-12.76,7.88-26.41,8.73-40.99
			c0-0.68,0.08-1.44,0.13-2.12v-0.13c0.08-2.33,0.13-4.66,0.13-7.04C638.59,325.54,635.58,308.8,629.61,293.41z M570.69,407.39
			c-0.08,0.13-0.21,0.25-0.34,0.38c-2.46,2.71-5.13,5.21-8.01,7.46h-0.04c-2.88,2.25-5.93,4.28-9.2,6.06
			c-2.2,1.19-4.49,2.29-6.87,3.26c-9.62,3.94-20.47,5.93-32.51,5.93c-10.55,0-20.13-1.53-28.82-4.54c-1.27-0.42-2.54-0.89-3.77-1.4
			c-3.6-1.48-7.04-3.22-10.21-5.21h-0.04c-5.38-3.31-10.17-7.29-14.41-11.95c-6.78-7.46-11.95-16.57-15.6-27.3
			c-3.64-10.77-5.47-22.89-5.47-36.45c0-1.82,0.04-3.6,0.13-5.34c0.42-11.4,2.16-21.74,5.34-31.07c3.65-10.77,8.82-19.88,15.6-27.38
			c4.24-4.7,9.03-8.73,14.41-12.04h0.04c3.18-1.99,6.61-3.73,10.21-5.21c1.23-0.51,2.5-0.97,3.77-1.4
			c8.69-3.05,18.27-4.58,28.82-4.58c12.04,0,22.89,1.99,32.51,5.98h0.04c9.58,3.98,17.72,9.71,24.41,17.25
			c6.74,7.5,11.87,16.62,15.47,27.38c2.08,6.27,3.52,12.97,4.37,20.13c0.68,5.21,0.97,10.6,0.97,16.28c0,10.72-1.1,20.56-3.35,29.5
			c-0.25,1.02-0.51,2.03-0.81,3.01c-0.13,0.47-0.25,0.93-0.38,1.36c-0.25,0.89-0.55,1.74-0.81,2.59c0,0.04-0.04,0.04-0.04,0.08
			C582.51,390.9,577.38,399.97,570.69,407.39z"/>
	</g>
</g>
<g>
	
		<linearGradient id="SVGID_2_" gradientUnits="userSpaceOnUse" x1="1955.8708" y1="1772.9796" x2="2071.4766" y2="1721.0259" gradientTransform="matrix(-0.8379 0.5459 -0.5459 -0.8379 3266.1575 697.0432)">
		<stop  offset="0" style="stop-color:#2700D4"/>
		<stop  offset="0.4543" style="stop-color:#FF00E7"/>
		<stop  offset="1" style="stop-color:#F1FF6A"/>
	</linearGradient>
	<path class="st3" d="M590.77,371.33c0.1-0.02,0.21-0.04,0.31-0.06c2.96-0.64,12.37-4.71,17.5-30.37l0,0c0.52-3.14,2.5-6,5.59-7.49
		c5.04-2.44,11.11-0.32,13.55,4.72c0.21,0.44,0.39,0.88,0.53,1.34c0.09,0.27,0.16,0.54,0.22,0.81c0.17,0.73,0.25,1.46,0.25,2.19
		c0,0,0,0.01,0,0.01c0.01,1.46-0.3,2.9-0.89,4.22C624.13,357.03,609.22,369.43,590.77,371.33z"/>
</g>
<linearGradient id="SVGID_3_" gradientUnits="userSpaceOnUse" x1="2016.3192" y1="1748.0631" x2="2061.1785" y2="1727.9032" gradientTransform="matrix(-0.8379 0.5459 -0.5459 -0.8379 3266.1575 697.0432)">
	<stop  offset="0" style="stop-color:#2700D4"/>
	<stop  offset="0.4543" style="stop-color:#FF00E7"/>
	<stop  offset="1" style="stop-color:#F1FF6A"/>
</linearGradient>
<path class="st4" d="M591.08,371.27c2.96-0.64,12.37-4.71,17.5-30.37l0,0c0.52-3.14,2.5-6,5.59-7.49
	c5.04-2.44,11.11-0.32,13.55,4.72c0.21,0.44,0.39,0.88,0.53,1.34c-2.32-6.52-13.16,0.84-16.77,12.89
	C608.42,362.57,602.54,369.14,591.08,371.27z"/>
<linearGradient id="SVGID_4_" gradientUnits="userSpaceOnUse" x1="473.9947" y1="467.4073" x2="649.506" y2="467.4073">
	<stop  offset="0.018" style="stop-color:#2700D4"/>
	<stop  offset="0.1404" style="stop-color:#7300DB"/>
	<stop  offset="0.2491" style="stop-color:#AF00E0"/>
	<stop  offset="0.3409" style="stop-color:#DA00E4"/>
	<stop  offset="0.4122" style="stop-color:#F500E6"/>
	<stop  offset="0.4543" style="stop-color:#FF00E7"/>
	<stop  offset="0.9208" style="stop-color:#F1FF6A"/>
</linearGradient>
<path class="st5" d="M616.8,464.94c0,0.04-0.04,0.04-0.04,0.08c-6.99,10.3-16.95,18.61-28.61,22.97c-8.73,3.26-17.97,4.45-27.3,4.11
	c-9.75-0.25-19.58-2.16-28.95-4.96c-5.55-1.65-11.02-3.6-16.45-5.76c-12.38-4.75-24.46-10.3-37-14.79
	c-1.44-0.59-2.97-1.06-4.45-1.57c28.4-18.86,55.53-23.69,78.67-22.08c9.2,0.64,17.76,2.25,25.52,4.45
	C596.32,452.43,610.01,460.4,616.8,464.94z"/>
<path class="st6" d="M616.8,465.02c-6.99,10.3-16.95,18.61-28.61,22.97c-8.73,3.26-17.97,4.45-27.3,4.11
	c-9.75-0.25-19.58-2.16-28.95-4.96c-5.55-1.65-11.02-3.6-16.45-5.76c15.05-10.09,30.31-15.6,44.63-18.31
	c9.07-1.7,17.76-2.25,25.81-2.12C598.06,461.17,608.7,463.03,616.8,465.02z"/>
<g>
	<path class="st7" d="M691.32,563.67h29.84v13.98H674.3V491.7h17.02V563.67z"/>
	<path class="st7" d="M812.92,534.61c0,6.3-0.99,12.13-2.98,17.51c-1.99,5.37-4.8,10.02-8.45,13.95c-3.65,3.93-8.04,6.99-13.17,9.19
		c-5.13,2.2-10.83,3.3-17.09,3.3s-11.95-1.1-17.09-3.3s-9.54-5.26-13.2-9.19c-3.67-3.92-6.5-8.58-8.51-13.95
		c-2.01-5.37-3.01-11.21-3.01-17.51c0-6.26,1-12.07,3.01-17.44c2.01-5.37,4.84-10.01,8.51-13.91c3.67-3.9,8.07-6.97,13.2-9.19
		c5.13-2.22,10.83-3.33,17.09-3.33s11.95,1.11,17.09,3.33c5.13,2.22,9.52,5.3,13.17,9.22c3.65,3.93,6.46,8.57,8.45,13.92
		C811.93,522.55,812.92,528.35,812.92,534.61z M795.58,534.61c0-4.57-0.56-8.67-1.68-12.3c-1.12-3.62-2.73-6.71-4.82-9.25
		c-2.09-2.54-4.64-4.5-7.64-5.86c-3-1.36-6.4-2.04-10.19-2.04s-7.21,0.68-10.22,2.04c-3.02,1.36-5.58,3.31-7.67,5.86
		c-2.09,2.55-3.7,5.63-4.82,9.25s-1.68,7.72-1.68,12.3c0,4.62,0.56,8.75,1.68,12.39s2.73,6.73,4.82,9.25
		c2.09,2.52,4.65,4.46,7.67,5.79c3.02,1.34,6.43,2.01,10.22,2.01s7.19-0.67,10.19-2.01c3-1.34,5.54-3.27,7.64-5.79
		c2.09-2.52,3.7-5.61,4.82-9.25C795.02,543.36,795.58,539.22,795.58,534.61z"/>
	<path class="st7" d="M899.7,577.64h-13.07c-1.51,0-2.72-0.36-3.63-1.07c-0.91-0.71-1.58-1.61-2.01-2.69L875.56,557h-31.65
		l-5.37,16.83c-0.35,0.95-1,1.82-1.97,2.62c-0.97,0.8-2.17,1.2-3.59,1.2h-13.27l31.32-85.95h17.34L899.7,577.64z M847.73,545.09
		h23.95l-8.74-27.18c-0.52-1.34-1.06-2.9-1.62-4.69c-0.56-1.79-1.12-3.74-1.68-5.86c-0.52,2.12-1.06,4.08-1.62,5.89
		c-0.56,1.81-1.08,3.39-1.55,4.72L847.73,545.09z"/>
	<path class="st7" d="M923.77,491.8c0.52,0.06,0.98,0.19,1.39,0.39c0.41,0.19,0.8,0.46,1.17,0.81c0.37,0.35,0.79,0.8,1.26,1.36
		l42.33,55.79c-0.26-2.85-0.39-5.54-0.39-8.09V491.7h14.95v85.95h-8.74c-1.34,0-2.45-0.23-3.33-0.68c-0.88-0.45-1.76-1.2-2.62-2.23
		l-42.2-55.46c0.26,2.68,0.39,5.16,0.39,7.44v50.93h-15.01V491.7h8.93C922.63,491.7,923.25,491.73,923.77,491.8z"/>
	<path class="st7" d="M1050.81,507.88c-0.43,0.86-0.94,1.48-1.52,1.84c-0.58,0.37-1.3,0.55-2.17,0.55c-0.82,0-1.71-0.3-2.65-0.91
		c-0.95-0.6-2.06-1.26-3.33-1.97s-2.75-1.37-4.43-1.97c-1.68-0.6-3.63-0.91-5.83-0.91c-3.88,0-6.81,0.95-8.77,2.85
		c-1.96,1.9-2.94,4.38-2.94,7.44c0,1.94,0.53,3.55,1.59,4.82c1.06,1.27,2.46,2.37,4.21,3.3c1.75,0.93,3.73,1.76,5.95,2.49
		c2.22,0.73,4.5,1.52,6.83,2.36c2.33,0.84,4.61,1.83,6.83,2.98c2.22,1.14,4.21,2.58,5.95,4.3c1.75,1.73,3.15,3.84,4.21,6.34
		c1.06,2.5,1.59,5.54,1.59,9.13c0,3.88-0.64,7.53-1.91,10.94c-1.27,3.41-3.14,6.38-5.6,8.9c-2.46,2.52-5.47,4.52-9.03,5.99
		c-3.56,1.47-7.63,2.2-12.2,2.2c-2.59,0-5.17-0.27-7.73-0.81c-2.57-0.54-5.04-1.3-7.41-2.3c-2.37-0.99-4.62-2.18-6.73-3.56
		c-2.12-1.38-3.97-2.93-5.57-4.66l5.05-8.09c0.39-0.65,0.92-1.16,1.59-1.55s1.39-0.58,2.17-0.58c1.04,0,2.1,0.4,3.2,1.2
		c1.1,0.8,2.38,1.68,3.85,2.65c1.47,0.97,3.17,1.86,5.11,2.65c1.94,0.8,4.25,1.2,6.92,1.2c3.88,0,6.9-0.99,9.06-2.98
		c2.16-1.98,3.24-4.92,3.24-8.8c0-2.2-0.53-3.99-1.59-5.37c-1.06-1.38-2.45-2.53-4.17-3.46c-1.73-0.93-3.7-1.72-5.92-2.39
		c-2.22-0.67-4.49-1.39-6.8-2.17c-2.31-0.78-4.57-1.71-6.79-2.82c-2.22-1.1-4.2-2.56-5.92-4.37c-1.73-1.81-3.12-4.05-4.17-6.73
		c-1.06-2.67-1.59-6-1.59-9.97c0-3.15,0.6-6.22,1.81-9.22c1.21-3,2.98-5.66,5.31-7.99c2.33-2.33,5.19-4.2,8.58-5.6
		c3.39-1.4,7.26-2.1,11.62-2.1c4.92,0,9.48,0.8,13.69,2.39c4.21,1.6,7.8,3.84,10.78,6.73L1050.81,507.88z"/>
	<path class="st7" d="M1073.46,568.78c0-1.34,0.25-2.61,0.74-3.82c0.5-1.21,1.19-2.24,2.07-3.11c0.88-0.86,1.93-1.55,3.14-2.07
		c1.21-0.52,2.5-0.78,3.88-0.78s2.67,0.26,3.88,0.78s2.25,1.21,3.14,2.07c0.88,0.86,1.58,1.9,2.1,3.11
		c0.52,1.21,0.78,2.48,0.78,3.82c0,1.38-0.26,2.68-0.78,3.88c-0.52,1.21-1.22,2.24-2.1,3.11c-0.89,0.86-1.93,1.54-3.14,2.04
		c-1.21,0.5-2.5,0.74-3.88,0.74s-2.68-0.25-3.88-0.74c-1.21-0.5-2.25-1.18-3.14-2.04c-0.88-0.86-1.58-1.9-2.07-3.11
		C1073.7,571.45,1073.46,570.16,1073.46,568.78z"/>
	<path class="st7" d="M1132.86,494.93c0,1.42-0.28,2.75-0.84,3.98c-0.56,1.23-1.32,2.31-2.27,3.24c-0.95,0.93-2.07,1.66-3.37,2.2
		c-1.29,0.54-2.65,0.81-4.08,0.81c-1.38,0-2.69-0.27-3.92-0.81c-1.23-0.54-2.31-1.27-3.24-2.2c-0.93-0.93-1.66-2.01-2.2-3.24
		c-0.54-1.23-0.81-2.56-0.81-3.98s0.27-2.76,0.81-4.01c0.54-1.25,1.27-2.34,2.2-3.27c0.93-0.93,2.01-1.66,3.24-2.2
		c1.23-0.54,2.53-0.81,3.92-0.81c1.42,0,2.78,0.27,4.08,0.81c1.29,0.54,2.42,1.27,3.37,2.2s1.7,2.02,2.27,3.27
		C1132.58,492.17,1132.86,493.51,1132.86,494.93z M1130.86,513.38v64.26h-16.44v-64.26H1130.86z"/>
	<path class="st7" d="M1179.91,512.34c4.7,0,9,0.77,12.88,2.3c3.88,1.53,7.21,3.73,9.97,6.6c2.76,2.87,4.9,6.34,6.41,10.42
		c1.51,4.08,2.27,8.64,2.27,13.69c0,5.13-0.76,9.75-2.27,13.85c-1.51,4.1-3.65,7.58-6.41,10.45c-2.76,2.87-6.08,5.08-9.97,6.63
		c-3.88,1.55-8.18,2.33-12.88,2.33c-4.75,0-9.07-0.78-12.98-2.33c-3.91-1.55-7.25-3.76-10.03-6.63c-2.78-2.87-4.93-6.35-6.44-10.45
		c-1.51-4.1-2.26-8.71-2.26-13.85c0-5.05,0.75-9.61,2.26-13.69c1.51-4.08,3.66-7.55,6.44-10.42c2.78-2.87,6.13-5.07,10.03-6.6
		C1170.83,513.11,1175.16,512.34,1179.91,512.34z M1179.91,566.06c4.96,0,8.63-1.74,11-5.21c2.37-3.47,3.56-8.6,3.56-15.37
		c0-6.77-1.19-11.9-3.56-15.37c-2.37-3.47-6.04-5.21-11-5.21c-5.05,0-8.77,1.74-11.16,5.21c-2.39,3.47-3.59,8.6-3.59,15.37
		c0,6.77,1.2,11.9,3.59,15.37S1174.86,566.06,1179.91,566.06z"/>
</g>
<linearGradient id="SVGID_5_" gradientUnits="userSpaceOnUse" x1="398.1699" y1="417.4242" x2="649.8631" y2="321.4503">
	<stop  offset="0" style="stop-color:#2700D4"/>
	<stop  offset="0.4543" style="stop-color:#FF00E7"/>
	<stop  offset="1" style="stop-color:#F1FF6A"/>
</linearGradient>
<path class="st8" d="M638.46,350.8c-0.04,0.68-0.13,1.44-0.13,2.12c-0.85,14.58-3.81,28.23-8.73,40.99
	c-6.06,15.39-14.54,28.74-25.47,40.01c-2.84,2.92-5.81,5.68-8.99,8.27c-0.13-0.04-0.3-0.08-0.42-0.13
	c-10.85-3.05-22.85-5.3-35.69-6.19c-29.21-2.03-62.78,3.26-98.21,23.61c-0.68-0.25-1.31-0.55-1.99-0.89
	c-0.85-0.34-1.7-0.72-2.54-1.19c-1.06-0.42-2.12-0.97-3.14-1.53c-0.89-0.38-1.74-0.85-2.59-1.36c-1.14-0.59-2.29-1.19-3.39-1.87
	c-3.77-2.16-7.38-4.54-10.81-7.12c-1.57-1.14-3.09-2.37-4.62-3.65c-1.53-1.23-2.97-2.54-4.41-3.86c-1.44-1.31-2.88-2.71-4.24-4.11
	c-10.98-11.27-19.46-24.58-25.52-40.01c-3.05-7.8-5.34-15.98-6.82-24.5c0-0.04,0.04-0.04,0.04-0.08c-0.59-3.31-0.97-6.7-0.97-10.22
	c0-7.59,1.53-14.84,4.28-21.41c0.59-1.44,1.27-2.84,1.99-4.24c4.11-7.88,10.05-14.71,17.29-19.84c7.25-5.13,15.73-8.56,24.97-9.75
	c2.42-0.25,4.62-0.42,6.61-0.47h1.74c4.49,0.08,8.6,0.68,12.12,1.61c3.56,0.93,6.7,2.46,9.24,4.32c0.04,0.04,0.08,0.08,0.13,0.13
	c0.04,0,0.04,0,0.04,0.04c0.38,0.25,0.72,0.55,1.1,0.85c5.89,5.13,7.46,12.04,1.23,16.19c-0.04,0.04-0.13,0.08-0.21,0.13
	c-1.4,0.89-2.84,1.23-4.37,1.23c-6.78,0-15.05-7.54-26.45-10.43c-4.49-1.14-9.45-1.57-15-0.51c-5.55,1.06-10.22,2.88-14.03,5.17
	c-0.08,0.04-0.13,0.04-0.17,0.08c-0.17,0.08-0.3,0.21-0.47,0.3c-15.51,9.75-17.34,27.85-11.36,36.28c0.08,0.13,0.25,0.25,0.38,0.34
	c1.48-1.53,3.05-3.01,4.66-4.45c1.02-0.85,4.96-4.15,7.21-5.68c7.5-5.13,15.9-8.9,24.75-10.72c0.04,0,0.04,0,0.08,0
	c1.78-0.38,3.56-0.68,5.34-0.89c17.12-1.95,34.38,2.54,50.36,9.11c1.74,0.64,3.43,1.4,5.09,2.12c17.51,7.71,34.04,17.51,51.97,24.2
	c9.16,3.39,18.78,5.98,28.53,6.95c3.05,0.3,6.15,0.42,9.24,0.38c0.04,0,0.04,0,0.08,0c6.15-0.08,12.25-0.89,18.18-2.67
	C618.58,373.22,630.66,363.35,638.46,350.8z"/>
<linearGradient id="SVGID_6_" gradientUnits="userSpaceOnUse" x1="398.1699" y1="417.4242" x2="649.8631" y2="321.4503">
	<stop  offset="0" style="stop-color:#2700D4"/>
	<stop  offset="0.4543" style="stop-color:#FF00E7"/>
	<stop  offset="1" style="stop-color:#F1FF6A"/>
</linearGradient>
<path class="st9" d="M638.46,350.8c-0.04,0.68-0.13,1.44-0.13,2.12c-0.85,14.58-3.81,28.23-8.73,40.99
	c-6.06,15.39-14.54,28.74-25.47,40.01c-2.84,2.92-5.81,5.68-8.99,8.27c-0.13-0.04-0.3-0.08-0.42-0.13
	c-10.85-3.05-22.85-5.3-35.69-6.19c-29.21-2.03-62.78,3.26-98.21,23.61c-0.68-0.25-1.31-0.55-1.99-0.89
	c-0.85-0.34-1.7-0.72-2.54-1.19c-1.06-0.42-2.12-0.97-3.14-1.53c-0.89-0.38-1.74-0.85-2.59-1.36c-1.14-0.59-2.29-1.19-3.39-1.87
	c-3.77-2.16-7.38-4.54-10.81-7.12c-1.57-1.14-3.09-2.37-4.62-3.65c-1.53-1.23-2.97-2.54-4.41-3.86c-1.44-1.31-2.88-2.71-4.24-4.11
	c-10.98-11.27-19.46-24.58-25.52-40.01c-3.05-7.8-5.34-15.98-6.82-24.5c0-0.04,0.04-0.04,0.04-0.08c-0.59-3.31-0.97-6.7-0.97-10.22
	c0-7.59,1.53-14.84,4.28-21.41c0.59-1.44,1.27-2.84,1.99-4.24c4.11-7.88,10.05-14.71,17.29-19.84c7.25-5.13,15.73-8.56,24.97-9.75
	c2.42-0.25,4.62-0.42,6.61-0.47h1.74c4.49,0.08,8.6,0.68,12.12,1.61c3.56,0.93,6.7,2.46,9.24,4.32c0.04,0.04,0.08,0.08,0.13,0.13
	c0.04,0,0.04,0,0.04,0.04c0.38,0.25,0.72,0.55,1.1,0.85c5.89,5.13,7.46,12.04,1.23,16.19c-0.04,0.04-0.13,0.08-0.21,0.13
	c-1.4,0.89-2.84,1.23-4.37,1.23c-6.78,0-15.05-7.54-26.45-10.43c-4.49-1.14-9.45-1.57-15-0.51c-5.55,1.06-10.22,2.88-14.03,5.17
	c-0.08,0.04-0.13,0.04-0.17,0.08c-0.17,0.08-0.3,0.21-0.47,0.3c-15.51,9.75-17.34,27.85-11.36,36.28c0.08,0.13,0.25,0.25,0.38,0.34
	c1.48-1.53,3.05-3.01,4.66-4.45c1.02-0.85,4.96-4.15,7.21-5.68c7.5-5.13,15.9-8.9,24.75-10.72c0.04,0,0.04,0,0.08,0
	c1.78-0.38,3.56-0.68,5.34-0.89c17.12-1.95,34.38,2.54,50.36,9.11c1.74,0.64,3.43,1.4,5.09,2.12c17.51,7.71,34.04,17.51,51.97,24.2
	c9.16,3.39,18.78,5.98,28.53,6.95c3.05,0.3,6.15,0.42,9.24,0.38c0.04,0,0.04,0,0.08,0c6.15-0.08,12.25-0.89,18.18-2.67
	C618.58,373.22,630.66,363.35,638.46,350.8z"/>
<linearGradient id="SVGID_7_" gradientUnits="userSpaceOnUse" x1="412.2152" y1="448.176" x2="662.7574" y2="352.641">
	<stop  offset="0" style="stop-color:#2700D4"/>
	<stop  offset="0.4543" style="stop-color:#FF00E7"/>
	<stop  offset="1" style="stop-color:#F1FF6A"/>
</linearGradient>
<path class="st10" d="M638.29,353.43c-0.89,14.41-3.81,27.89-8.69,40.48c-6.06,15.39-14.54,28.74-25.47,40.01
	c-2.84,2.92-5.81,5.68-8.99,8.27c-0.13-0.04-0.3-0.08-0.42-0.13c-10.85-3.05-22.85-5.3-35.69-6.19
	c-29.21-2.03-62.78,3.26-98.21,23.61c-0.68-0.25-1.31-0.55-1.99-0.89c-0.85-0.34-1.7-0.72-2.54-1.19c-1.06-0.42-2.12-0.97-3.14-1.53
	c-0.89-0.38-1.74-0.85-2.59-1.36c-1.14-0.59-2.29-1.19-3.39-1.87c-3.77-2.16-7.38-4.54-10.81-7.12c-1.57-1.14-3.09-2.37-4.62-3.65
	c-1.53-1.23-2.97-2.54-4.41-3.86c-1.44-1.31-2.88-2.71-4.24-4.11c-10.98-11.27-19.46-24.58-25.52-40.01
	c-0.42-1.14-0.89-2.29-1.27-3.43c14.45,14.96,31.06,6.93,67.56-15.83c27.64-17.21,59.88-5.79,102.33,6.81
	C610.78,394.68,637.57,359.07,638.29,353.43z"/>
<linearGradient id="SVGID_8_" gradientUnits="userSpaceOnUse" x1="396.6008" y1="454.13" x2="647.1431" y2="358.5949">
	<stop  offset="0" style="stop-color:#2700D4"/>
	<stop  offset="0.4543" style="stop-color:#FF00E7"/>
	<stop  offset="1" style="stop-color:#F1FF6A"/>
</linearGradient>
<path class="st11" d="M638.29,353.43c-0.89,14.41-3.81,27.89-8.69,40.48c-6.06,15.39-14.54,28.74-25.47,40.01
	c-2.84,2.92-5.81,5.68-8.99,8.27c-0.13-0.04-0.3-0.08-0.42-0.13c-10.85-3.05-22.85-5.3-35.69-6.19
	c-29.21-2.03-62.78,3.26-98.21,23.61c-0.68-0.25-1.31-0.55-1.99-0.89c-0.85-0.34-1.7-0.72-2.54-1.19c-1.06-0.42-2.12-0.97-3.14-1.53
	c-0.89-0.38-1.74-0.85-2.59-1.36c-1.14-0.59-2.29-1.19-3.39-1.87c-3.77-2.16-7.38-4.54-10.81-7.12c-1.57-1.14-3.09-2.37-4.62-3.65
	c-1.53-1.23-2.97-2.54-4.41-3.86c-1.44-1.31-2.88-2.71-4.24-4.11c-10.98-11.27-19.46-24.58-25.52-40.01
	c-0.42-1.14-0.89-2.29-1.27-3.43c14.45,14.96,47.26,41.16,83.76,18.4c27.64-17.21,37.49-32.06,83.53-13.24
	C606.66,413.18,637.57,359.07,638.29,353.43z"/>
<linearGradient id="SVGID_9_" gradientUnits="userSpaceOnUse" x1="637.9161" y1="352.0465" x2="638.8311" y2="351.6976">
	<stop  offset="0" style="stop-color:#2700D4"/>
	<stop  offset="0.4543" style="stop-color:#FF00E7"/>
	<stop  offset="1" style="stop-color:#F1FF6A"/>
</linearGradient>
<path class="st12" d="M638.46,350.8c-0.04,0.68-0.13,1.44-0.13,2.12l-0.34-1.4C638.17,351.27,638.29,351.06,638.46,350.8z"/>
<linearGradient id="SVGID_10_" gradientUnits="userSpaceOnUse" x1="429.3253" y1="312.8296" x2="489.1758" y2="319.0106">
	<stop  offset="0" style="stop-color:#2700D4"/>
	<stop  offset="0.4543" style="stop-color:#FF00E7"/>
	<stop  offset="1" style="stop-color:#F1FF6A"/>
</linearGradient>
<path class="st13" d="M470.42,326.71c-4.22,2.67-8.91,0.66-14.61-2.27c5.64,2.89,15.3,0.31,11.17-8.89
	c-7.24-16.13-36.74-9.95-48.52-5.04c6.05-3.39,12.79-5.67,19.96-6.6c0.01,0,0.02,0,0.03,0c2.4-0.27,4.62-0.43,6.61-0.45
	c0.19,0,0.38,0,0.56,0c0.21,0,0.41,0,0.61,0c0.18,0,0.36,0,0.54,0.01c4.52,0.08,8.6,0.66,12.13,1.58c3.57,0.94,6.71,2.47,9.23,4.34
	c0,0,0,0,0.01,0c0.05,0.04,0.11,0.08,0.16,0.12c0.01,0.01,0.02,0.02,0.04,0.02c0.37,0.28,0.73,0.57,1.07,0.86
	C475.39,315.55,476.89,322.61,470.42,326.71z"/>
<g>
	<linearGradient id="SVGID_11_" gradientUnits="userSpaceOnUse" x1="472.736" y1="327.9587" x2="495.865" y2="327.9587">
		<stop  offset="0" style="stop-color:#2700D4"/>
		<stop  offset="0.4543" style="stop-color:#FF00E7"/>
		<stop  offset="1" style="stop-color:#F1FF6A"/>
	</linearGradient>
	<circle class="st14" cx="482.96" cy="327.96" r="5.83"/>
	<linearGradient id="SVGID_12_" gradientUnits="userSpaceOnUse" x1="472.7403" y1="327.8542" x2="495.857" y2="327.8542">
		<stop  offset="0" style="stop-color:#2700D4"/>
		<stop  offset="0.4543" style="stop-color:#FF00E7"/>
		<stop  offset="1" style="stop-color:#F1FF6A"/>
	</linearGradient>
	<path class="st15" d="M488.79,327.77c-0.68-1.86-2.49-3.17-4.58-3.17c-2.73,0-4.94,2.19-4.94,4.91c0,1.67,0.85,3.15,2.12,4.07
		c-2.47-0.71-4.26-2.94-4.26-5.62c0-3.22,2.61-5.83,5.83-5.83C486.11,322.13,488.7,324.65,488.79,327.77z"/>
</g>
</svg>
